<svg id="visual" viewBox="0 0 900 600" width="900" height="600" xmlns="http://www.w3.org/2000/svg" xmlns:xlink="http://www.w3.org/1999/xlink" version="1.1"><rect x="0" y="0" width="900" height="600" fill="#3D1268"></rect><path d="M0 418L129 365L257 397L386 368L514 446L643 385L771 405L900 418L900 601L771 601L643 601L514 601L386 601L257 601L129 601L0 601Z" fill="#ce3e5f"></path><path d="M0 443L129 433L257 465L386 443L514 480L643 425L771 438L900 418L900 601L771 601L643 601L514 601L386 601L257 601L129 601L0 601Z" fill="#c13163"></path><path d="M0 496L129 473L257 489L386 478L514 496L643 450L771 470L900 441L900 601L771 601L643 601L514 601L386 601L257 601L129 601L0 601Z" fill="#b22666"></path><path d="M0 542L129 533L257 517L386 518L514 504L643 495L771 514L900 491L900 601L771 601L643 601L514 601L386 601L257 601L129 601L0 601Z" fill="#a21c68"></path><path d="M0 568L129 553L257 557L386 549L514 553L643 526L771 563L900 573L900 601L771 601L643 601L514 601L386 601L257 601L129 601L0 601Z" fill="#91156a"></path></svg>